<svg width="204" height="66" viewBox="0 0 204 66" fill="none" xmlns="http://www.w3.org/2000/svg">
<rect width="58.0851" height="57.3404" rx="8" fill="url(#paint0_linear_1_11)"/>
<rect x="11.9149" y="7.44681" width="58.0851" height="57.3404" rx="8" fill="url(#paint1_linear_1_11)"/>
<circle cx="49.5212" cy="14.5213" r="1.8617" fill="#07071A"/>
<circle cx="55.4787" cy="14.5213" r="1.8617" fill="#07071A"/>
<circle cx="61.4361" cy="14.5213" r="1.8617" fill="#07071A"/>
<path d="M49.5213 25.3191H40.9574L35 43.1915H43.9362L38.7234 55.1063L51.7553 39.0957H43.1915L49.5213 25.3191Z" fill="#07071A"/>
<path d="M97.99 30.203C96.5787 30.203 95.3027 29.9613 94.162 29.478C93.0407 28.9947 92.1513 28.2987 91.494 27.39C90.8367 26.4813 90.4983 25.4083 90.479 24.171H94.829C94.887 25.0023 95.177 25.6597 95.699 26.143C96.2403 26.6263 96.975 26.868 97.903 26.868C98.8503 26.868 99.5947 26.6457 100.136 26.201C100.677 25.737 100.948 25.1377 100.948 24.403C100.948 23.8037 100.764 23.3107 100.397 22.924C100.03 22.5373 99.5657 22.2377 99.005 22.025C98.4637 21.793 97.7097 21.5417 96.743 21.271C95.4283 20.8843 94.3553 20.5073 93.524 20.14C92.712 19.7533 92.0063 19.183 91.407 18.429C90.827 17.6557 90.537 16.631 90.537 15.355C90.537 14.1563 90.8367 13.1123 91.436 12.223C92.0353 11.3337 92.8763 10.657 93.959 10.193C95.0417 9.70967 96.279 9.468 97.671 9.468C99.759 9.468 101.451 9.98033 102.746 11.005C104.061 12.0103 104.786 13.4217 104.921 15.239H100.455C100.416 14.543 100.117 13.9727 99.556 13.528C99.0147 13.064 98.2897 12.832 97.381 12.832C96.5883 12.832 95.9503 13.035 95.467 13.441C95.003 13.847 94.771 14.4367 94.771 15.21C94.771 15.7513 94.945 16.2057 95.293 16.573C95.6603 16.921 96.105 17.211 96.627 17.443C97.1683 17.6557 97.9223 17.907 98.889 18.197C100.204 18.5837 101.277 18.9703 102.108 19.357C102.939 19.7437 103.655 20.3237 104.254 21.097C104.853 21.8703 105.153 22.8853 105.153 24.142C105.153 25.2247 104.873 26.23 104.312 27.158C103.751 28.086 102.93 28.8303 101.847 29.391C100.764 29.9323 99.4787 30.203 97.99 30.203ZM112.733 8.54V30H108.673V8.54H112.733ZM115.7 21.909C115.7 20.285 116.019 18.8447 116.657 17.588C117.314 16.3313 118.194 15.3647 119.296 14.688C120.417 14.0113 121.664 13.673 123.037 13.673C124.236 13.673 125.28 13.9147 126.169 14.398C127.078 14.8813 127.803 15.4903 128.344 16.225V13.934H132.433V30H128.344V27.651C127.822 28.405 127.097 29.0333 126.169 29.536C125.26 30.0193 124.207 30.261 123.008 30.261C121.655 30.261 120.417 29.913 119.296 29.217C118.194 28.521 117.314 27.5447 116.657 26.288C116.019 25.012 115.7 23.5523 115.7 21.909ZM128.344 21.967C128.344 20.981 128.151 20.14 127.764 19.444C127.377 18.7287 126.855 18.1873 126.198 17.82C125.541 17.4333 124.835 17.24 124.081 17.24C123.327 17.24 122.631 17.4237 121.993 17.791C121.355 18.1583 120.833 18.6997 120.427 19.415C120.04 20.111 119.847 20.9423 119.847 21.909C119.847 22.8757 120.04 23.7263 120.427 24.461C120.833 25.1763 121.355 25.7273 121.993 26.114C122.65 26.5007 123.346 26.694 124.081 26.694C124.835 26.694 125.541 26.5103 126.198 26.143C126.855 25.7563 127.377 25.215 127.764 24.519C128.151 23.8037 128.344 22.953 128.344 21.967ZM142.546 30.261C141.232 30.261 140.052 30.029 139.008 29.565C137.964 29.0817 137.133 28.434 136.514 27.622C135.915 26.81 135.586 25.911 135.528 24.925H139.617C139.695 25.5437 139.994 26.056 140.516 26.462C141.058 26.868 141.725 27.071 142.517 27.071C143.291 27.071 143.89 26.9163 144.315 26.607C144.76 26.2977 144.982 25.9013 144.982 25.418C144.982 24.896 144.712 24.5093 144.17 24.258C143.648 23.9873 142.807 23.6973 141.647 23.388C140.449 23.098 139.463 22.7983 138.689 22.489C137.935 22.1797 137.278 21.706 136.717 21.068C136.176 20.43 135.905 19.5697 135.905 18.487C135.905 17.5977 136.157 16.7857 136.659 16.051C137.181 15.3163 137.916 14.7363 138.863 14.311C139.83 13.8857 140.961 13.673 142.256 13.673C144.17 13.673 145.698 14.1563 146.838 15.123C147.979 16.0703 148.607 17.356 148.723 18.98H144.837C144.779 18.342 144.509 17.8393 144.025 17.472C143.561 17.0853 142.933 16.892 142.14 16.892C141.406 16.892 140.835 17.0273 140.429 17.298C140.043 17.5687 139.849 17.9457 139.849 18.429C139.849 18.9703 140.12 19.386 140.661 19.676C141.203 19.9467 142.044 20.227 143.184 20.517C144.344 20.807 145.301 21.1067 146.055 21.416C146.809 21.7253 147.457 22.2087 147.998 22.866C148.559 23.504 148.849 24.3547 148.868 25.418C148.868 26.346 148.607 27.1773 148.085 27.912C147.583 28.6467 146.848 29.2267 145.881 29.652C144.934 30.058 143.822 30.261 142.546 30.261ZM161.249 13.702C162.467 13.702 163.55 13.9727 164.497 14.514C165.445 15.036 166.179 15.819 166.701 16.863C167.243 17.8877 167.513 19.125 167.513 20.575V30H163.453V21.126C163.453 19.85 163.134 18.8737 162.496 18.197C161.858 17.501 160.988 17.153 159.886 17.153C158.765 17.153 157.876 17.501 157.218 18.197C156.58 18.8737 156.261 19.85 156.261 21.126V30H152.201V8.54H156.261V15.935C156.783 15.239 157.479 14.6977 158.349 14.311C159.219 13.905 160.186 13.702 161.249 13.702ZM103.5 40.758V44.035H95.061V49.226H101.528V52.445H95.061V61H91.001V40.758H103.5ZM121.546 44.934V61H117.457V58.97C116.935 59.666 116.249 60.217 115.398 60.623C114.567 61.0097 113.658 61.203 112.672 61.203C111.415 61.203 110.304 60.942 109.337 60.42C108.37 59.8787 107.607 59.0957 107.046 58.071C106.505 57.027 106.234 55.7897 106.234 54.359V44.934H110.294V53.779C110.294 55.055 110.613 56.041 111.251 56.737C111.889 57.4137 112.759 57.752 113.861 57.752C114.982 57.752 115.862 57.4137 116.5 56.737C117.138 56.041 117.457 55.055 117.457 53.779V44.934H121.546ZM134.455 44.702C136.369 44.702 137.915 45.311 139.095 46.529C140.274 47.7277 140.864 49.4097 140.864 51.575V61H136.804V52.126C136.804 50.85 136.485 49.8737 135.847 49.197C135.209 48.501 134.339 48.153 133.237 48.153C132.115 48.153 131.226 48.501 130.569 49.197C129.931 49.8737 129.612 50.85 129.612 52.126V61H125.552V44.934H129.612V46.935C130.153 46.239 130.839 45.6977 131.671 45.311C132.521 44.905 133.449 44.702 134.455 44.702ZM153.628 44.702C155.542 44.702 157.088 45.311 158.268 46.529C159.447 47.7277 160.037 49.4097 160.037 51.575V61H155.977V52.126C155.977 50.85 155.658 49.8737 155.02 49.197C154.382 48.501 153.512 48.153 152.41 48.153C151.288 48.153 150.399 48.501 149.742 49.197C149.104 49.8737 148.785 50.85 148.785 52.126V61H144.725V44.934H148.785V46.935C149.326 46.239 150.012 45.6977 150.844 45.311C151.694 44.905 152.622 44.702 153.628 44.702ZM178.832 52.619C178.832 53.199 178.794 53.721 178.716 54.185H166.971C167.068 55.345 167.474 56.2537 168.189 56.911C168.905 57.5683 169.784 57.897 170.828 57.897C172.336 57.897 173.409 57.2493 174.047 55.954H178.426C177.962 57.5007 177.073 58.7767 175.758 59.782C174.444 60.768 172.829 61.261 170.915 61.261C169.369 61.261 167.977 60.9227 166.739 60.246C165.521 59.55 164.564 58.5737 163.868 57.317C163.192 56.0603 162.853 54.6103 162.853 52.967C162.853 51.3043 163.192 49.8447 163.868 48.588C164.545 47.3313 165.492 46.3647 166.71 45.688C167.928 45.0113 169.33 44.673 170.915 44.673C172.443 44.673 173.806 45.0017 175.004 45.659C176.222 46.3163 177.16 47.254 177.817 48.472C178.494 49.6707 178.832 51.053 178.832 52.619ZM174.627 51.459C174.608 50.415 174.231 49.5837 173.496 48.965C172.762 48.327 171.863 48.008 170.799 48.008C169.794 48.008 168.943 48.3173 168.247 48.936C167.571 49.5353 167.155 50.3763 167 51.459H174.627ZM185.856 39.54V61H181.796V39.54H185.856ZM196.015 61.261C194.701 61.261 193.521 61.029 192.477 60.565C191.433 60.0817 190.602 59.434 189.983 58.622C189.384 57.81 189.055 56.911 188.997 55.925H193.086C193.164 56.5437 193.463 57.056 193.985 57.462C194.527 57.868 195.194 58.071 195.986 58.071C196.76 58.071 197.359 57.9163 197.784 57.607C198.229 57.2977 198.451 56.9013 198.451 56.418C198.451 55.896 198.181 55.5093 197.639 55.258C197.117 54.9873 196.276 54.6973 195.116 54.388C193.918 54.098 192.932 53.7983 192.158 53.489C191.404 53.1797 190.747 52.706 190.186 52.068C189.645 51.43 189.374 50.5697 189.374 49.487C189.374 48.5977 189.626 47.7857 190.128 47.051C190.65 46.3163 191.385 45.7363 192.332 45.311C193.299 44.8857 194.43 44.673 195.725 44.673C197.639 44.673 199.167 45.1563 200.307 46.123C201.448 47.0703 202.076 48.356 202.192 49.98H198.306C198.248 49.342 197.978 48.8393 197.494 48.472C197.03 48.0853 196.402 47.892 195.609 47.892C194.875 47.892 194.304 48.0273 193.898 48.298C193.512 48.5687 193.318 48.9457 193.318 49.429C193.318 49.9703 193.589 50.386 194.13 50.676C194.672 50.9467 195.513 51.227 196.653 51.517C197.813 51.807 198.77 52.1067 199.524 52.416C200.278 52.7253 200.926 53.2087 201.467 53.866C202.028 54.504 202.318 55.3547 202.337 56.418C202.337 57.346 202.076 58.1773 201.554 58.912C201.052 59.6467 200.317 60.2267 199.35 60.652C198.403 61.058 197.291 61.261 196.015 61.261Z" fill="white"/>
<defs>
<linearGradient id="paint0_linear_1_11" x1="50.6383" y1="4.46809" x2="-2.17709e-06" y2="57.3404" gradientUnits="userSpaceOnUse">
<stop stop-color="#0085FF"/>
<stop offset="1" stop-color="#001AFF"/>
</linearGradient>
<linearGradient id="paint1_linear_1_11" x1="61.8085" y1="11.9149" x2="21.2234" y2="62.5532" gradientUnits="userSpaceOnUse">
<stop stop-color="#FFE350"/>
<stop offset="1" stop-color="#FF8A00"/>
</linearGradient>
</defs>
</svg>
